# xmcd
#
# Track frame offsets:
#	183
#	17613
#	32730
#	61095
#	79210
#	99718
#	123018
#	138068
#	165210
#	180135
#	199625
#	217505
#	226408
#	245553
#
# Disc length: 3585 seconds
#
# Revision: 1
# Processed by: cddbd v1.5.1PL0 Copyright (c) Steve Scherf et al.
# Submitted via: audiograbber 1.83.01
#
DISCID=9b0dff0e
DTITLE=Dennis Locorriere - The man live
DYEAR=1900
DGENRE=pop
TTITLE0=something familiar
TTITLE1=it doesn't take a lot to make her cry
TTITLE2=the ballad of lucy jordan
TTITLE3=dancing inside
TTITLE4=cookie and lyla
TTITLE5=more like the movies
TTITLE6=sinking ship
TTITLE7=that's all it takes
TTITLE8=a couple more years
TTITLE9=cover of the rolling stone
TTITLE10=ain't this the life
TTITLE11=a little bit more
TTITLE12=if not you
TTITLE13=right off the top of my head
EXTD=
EXTT0=
EXTT1=
EXTT2=
EXTT3=
EXTT4=
EXTT5=
EXTT6=
EXTT7=
EXTT8=
EXTT9=
EXTT10=
EXTT11=
EXTT12=
EXTT13=
PLAYORDER=
